<svg xmlns="http://www.w3.org/2000/svg" width="480" height="240" preserveAspectRatio="xMidYMid" viewBox="0 0 360 180"><path fill="#fff" d="M0 0h360v180H0z"/><path fill="#fff" d="M0 0h360v180H0z"/><path fill="#2cbaa3" d="M99.113 109.4H60.957l-7.281 17.61h-19.5l36.64-82.188h18.782l36.75 82.187h-19.97zm-6-14.437-13.031-31.47-13.031 31.47zm40.506-31.125h18.312v63.171H133.62zm9.156-8.797q-5.05.002-8.219-2.938-3.174-2.935-3.172-7.281-.002-4.341 3.172-7.281 3.169-2.937 8.219-2.938 5.043.002 8.219 2.828c2.113 1.875 3.172 4.227 3.172 7.047 0 3.055-1.06 5.578-3.172 7.578q-3.175 2.987-8.22 2.985m0 0"/><path fill="#2d2a42" d="M230.605 84.275q7.045 2.239 11.032 7.453c2.664 3.48 4 7.766 4 12.86 0 7.199-2.805 12.734-8.407 16.609q-8.39 5.812-24.468 5.812h-42.5V44.822h40.14q15.029 0 23.078 5.766 8.047 5.753 8.047 15.609 0 5.989-2.89 10.687-2.876 4.689-8.032 7.391M189.152 59.15v19.375h18.907c4.695 0 8.257-.82 10.687-2.469q3.64-2.465 3.64-7.281 0-4.81-3.64-7.219c-2.43-1.601-5.992-2.406-10.687-2.406zm22.203 53.531q7.5.001 11.313-2.453 3.827-2.466 3.828-7.64 0-10.22-15.14-10.22h-22.204v20.313zm48.717-67.859h19.015v66.687h41.203v15.5h-60.218Zm0 0"/><path fill="#2cbaa3" d="M50.351 147.464h-7.64l-1.47 3.531h-3.905l7.343-16.468h3.766l7.36 16.468h-4zm-1.203-2.89-2.61-6.297-2.609 6.297Zm8.101-6.234h3.672v12.655h-3.672Zm1.828-1.766q-1.002 0-1.64-.579a1.93 1.93 0 0 1-.626-1.468q-.001-.856.625-1.438.64-.593 1.64-.594 1.015 0 1.641.563.64.563.641 1.406-.001.924-.64 1.516-.628.596-1.641.594m0 0"/><path fill="#4b5563" d="M73.722 136.042v6.469h8.516v1.5h-8.516v6.984h-1.734v-16.468h11.281v1.515zm17.426 15.078q-1.8 0-3.234-.812-1.425-.81-2.25-2.25c-.555-.957-.828-2.04-.828-3.25 0-1.207.273-2.285.828-3.234a5.86 5.86 0 0 1 2.25-2.235q1.435-.81 3.234-.812c1.188 0 2.258.273 3.219.812a5.64 5.64 0 0 1 2.234 2.235q.812 1.423.813 3.234c0 1.21-.274 2.293-.813 3.25a5.7 5.7 0 0 1-2.234 2.25c-.961.543-2.031.812-3.219.812m0-1.484c.875 0 1.66-.195 2.36-.594a4.2 4.2 0 0 0 1.625-1.718q.592-1.11.593-2.516-.001-1.405-.593-2.516a4.1 4.1 0 0 0-1.625-1.703q-1.049-.593-2.36-.594-1.332.001-2.375.594a4.2 4.2 0 0 0-1.64 1.703c-.399.742-.594 1.578-.594 2.516s.195 1.777.594 2.516a4.25 4.25 0 0 0 1.64 1.718c.695.399 1.488.594 2.375.594m11.271-8.594a4.14 4.14 0 0 1 1.75-1.875q1.17-.64 2.89-.64v1.625l-.406-.016q-1.956 0-3.062 1.203-1.095 1.19-1.094 3.36v6.296h-1.672V138.62h1.594zm24.711 1.469q1.621.346 2.5 1.39.89 1.05.89 2.704-.002 2.111-1.562 3.25-1.565 1.14-4.625 1.14h-7.563v-16.468h7.094q2.748 0 4.265 1.109 1.514 1.111 1.516 3.125c0 .918-.227 1.695-.672 2.328-.437.637-1.055 1.11-1.844 1.422m-8.626-6.547v5.985h5.25c1.32 0 2.344-.254 3.063-.766q1.092-.763 1.094-2.234c0-.97-.368-1.708-1.094-2.22-.719-.507-1.742-.765-3.063-.765zm5.813 13.594q2.203 0 3.328-.75 1.139-.75 1.14-2.344-.002-3.094-4.468-3.094h-5.813v6.188zm20.96-10.938v12.375h-1.594v-2.25a4.57 4.57 0 0 1-1.812 1.75q-1.161.626-2.625.625c-1.617 0-2.89-.453-3.828-1.359q-1.406-1.358-1.406-3.969v-7.172h1.671v7.016c0 1.305.32 2.293.97 2.969q.967 1.001 2.75 1 1.951 0 3.077-1.188 1.138-1.185 1.14-3.297v-6.5zm7.993 12.5c-1 0-1.961-.144-2.875-.437q-1.377-.436-2.156-1.094l.75-1.328q.78.628 1.953 1.016 1.17.375 2.453.375 1.686.001 2.5-.532.81-.528.812-1.484 0-.685-.453-1.078-.44-.389-1.125-.578a17 17 0 0 0-1.812-.39q-1.501-.281-2.422-.579a3.64 3.64 0 0 1-1.563-1c-.43-.469-.64-1.117-.64-1.953q-.001-1.547 1.28-2.531c.864-.664 2.067-1 3.61-1q1.202 0 2.39.328 1.202.314 1.985.828l-.734 1.344c-1.024-.707-2.234-1.063-3.64-1.063q-1.613 0-2.423.563-.796.563-.796 1.484c0 .469.148.844.453 1.125q.45.423 1.14.625.685.205 1.875.422 1.484.281 2.375.562a3.4 3.4 0 0 1 1.532.97q.639.672.64 1.874 0 1.629-1.36 2.578-1.347.954-3.75.953m8.184-12.5h1.671v12.375h-1.671Zm.843-2.703q-.515.001-.875-.343a1.17 1.17 0 0 1-.343-.844q-.001-.481.343-.828.36-.36.875-.36.529.002.875.344.36.344.36.813 0 .515-.36.875-.346.344-.875.343m11.777 2.61q2.326 0 3.703 1.359c.914.898 1.375 2.21 1.375 3.938v7.171h-1.656v-7q0-1.935-.969-2.937-.97-1.015-2.75-1.016c-1.336 0-2.39.399-3.172 1.188q-1.158 1.189-1.156 3.281v6.484h-1.672V138.62h1.594v2.282a4.7 4.7 0 0 1 1.89-1.75c.813-.414 1.75-.625 2.813-.625m20.431 6.797h-10.344q.139 1.939 1.484 3.125 1.342 1.188 3.39 1.187 1.138.002 2.11-.406a4.7 4.7 0 0 0 1.672-1.219l.938 1.078a5.5 5.5 0 0 1-2.063 1.516q-1.237.515-2.703.515-1.91 0-3.375-.812a5.84 5.84 0 0 1-2.297-2.25c-.555-.957-.828-2.04-.828-3.25q-.002-1.81.781-3.234a5.75 5.75 0 0 1 2.172-2.235q1.37-.81 3.094-.812 1.717.002 3.078.812a5.73 5.73 0 0 1 2.14 2.219q.781 1.423.782 3.25zm-5.97-5.36c-1.187 0-2.187.383-3 1.14q-1.204 1.144-1.374 2.985h8.765q-.156-1.84-1.375-2.984-1.205-1.139-3.015-1.14m12.714 11.155q-1.501.001-2.875-.437-1.377-.436-2.156-1.094l.75-1.328q.78.628 1.953 1.016 1.171.375 2.453.375 1.686.001 2.5-.532.811-.528.813-1.484-.001-.685-.453-1.078-.44-.389-1.125-.578a17 17 0 0 0-1.813-.39q-1.501-.281-2.422-.579a3.64 3.64 0 0 1-1.562-1c-.43-.469-.641-1.117-.641-1.953q0-1.547 1.281-2.531c.864-.664 2.067-1 3.61-1q1.2 0 2.39.328 1.2.314 1.985.828l-.735 1.344q-1.533-1.062-3.64-1.063-1.613 0-2.422.563-.797.563-.797 1.484c0 .469.148.844.453 1.125q.45.423 1.14.625.687.205 1.876.422 1.482.281 2.375.562a3.4 3.4 0 0 1 1.53.97q.641.672.642 1.874 0 1.629-1.36 2.578-1.347.954-3.75.953m11.495 0q-1.501.001-2.875-.437-1.377-.436-2.156-1.094l.75-1.328q.78.628 1.953 1.016 1.172.375 2.453.375 1.686.001 2.5-.532.811-.528.813-1.484 0-.685-.453-1.078-.44-.389-1.125-.578a17 17 0 0 0-1.813-.39q-1.5-.281-2.422-.579a3.64 3.64 0 0 1-1.562-1c-.43-.469-.64-1.117-.64-1.953q-.001-1.547 1.28-2.531c.864-.664 2.067-1 3.61-1q1.201 0 2.39.328 1.201.314 1.985.828l-.734 1.344q-1.534-1.062-3.641-1.063-1.612 0-2.422.563-.797.563-.797 1.484-.002.703.453 1.125.45.423 1.141.625.685.205 1.875.422 1.483.281 2.375.562a3.4 3.4 0 0 1 1.531.97q.64.672.64 1.874 0 1.629-1.359 2.578-1.347.954-3.75.953m14.702-16.593h1.734v14.968h9.219v1.5h-10.953Zm24.064 10.797h-10.344c.094 1.292.586 2.335 1.485 3.125q1.34 1.188 3.39 1.187 1.137.002 2.11-.406a4.7 4.7 0 0 0 1.671-1.219l.938 1.078a5.5 5.5 0 0 1-2.063 1.516q-1.237.515-2.703.515-1.91 0-3.375-.812a5.84 5.84 0 0 1-2.297-2.25q-.83-1.435-.828-3.25-.002-1.81.782-3.234a5.75 5.75 0 0 1 2.171-2.235q1.371-.81 3.094-.812 1.718.002 3.078.812a5.73 5.73 0 0 1 2.14 2.219q.781 1.423.782 3.25zm-5.969-5.36c-1.187 0-2.187.383-3 1.14q-1.207 1.144-1.375 2.985h8.766q-.158-1.84-1.375-2.984-1.207-1.139-3.016-1.14m13.377-1.438q2.42 0 3.704 1.218 1.295 1.206 1.296 3.579v7.671h-1.593v-1.921c-.375.636-.93 1.136-1.657 1.5-.73.367-1.593.546-2.593.546q-2.08 0-3.297-.984-1.22-.997-1.219-2.625 0-1.576 1.14-2.531c.758-.645 1.97-.969 3.626-.969h3.937v-.75c0-1.062-.305-1.867-.906-2.422q-.892-.844-2.61-.844c-.78 0-1.53.133-2.25.391q-1.079.375-1.859 1.063l-.75-1.25q.938-.797 2.25-1.235a8.9 8.9 0 0 1 2.781-.437m-.593 11.265c.945 0 1.754-.21 2.422-.64q1.013-.657 1.515-1.875v-2.016h-3.89c-2.118 0-3.172.734-3.172 2.203 0 .719.27 1.29.812 1.703q.825.626 2.313.625m21.463-16.25v17.453h-1.594v-2.453a5.15 5.15 0 0 1-1.984 1.922q-1.235.656-2.781.656-1.751 0-3.156-.796a5.9 5.9 0 0 1-2.22-2.235q-.795-1.435-.796-3.281 0-1.827.797-3.266a5.7 5.7 0 0 1 2.219-2.218q1.405-.798 3.156-.797c1 0 1.898.21 2.703.625.812.418 1.476 1.027 2 1.828v-7.438zm-6.219 16.094c.852 0 1.63-.195 2.329-.594a4.3 4.3 0 0 0 1.64-1.718q.61-1.11.61-2.516t-.61-2.516a4.23 4.23 0 0 0-1.64-1.703 4.66 4.66 0 0 0-2.329-.594q-1.33.001-2.375.594a4.2 4.2 0 0 0-1.64 1.703c-.399.742-.594 1.578-.594 2.516s.195 1.777.594 2.516a4.25 4.25 0 0 0 1.64 1.718c.696.399 1.489.594 2.375.594m21.642-4.312h-10.344q.139 1.939 1.484 3.125 1.341 1.188 3.391 1.187 1.137.002 2.11-.406a4.7 4.7 0 0 0 1.671-1.219l.938 1.078a5.5 5.5 0 0 1-2.063 1.516q-1.237.515-2.703.515-1.91 0-3.375-.812a5.84 5.84 0 0 1-2.297-2.25q-.83-1.435-.828-3.25-.002-1.81.781-3.234a5.75 5.75 0 0 1 2.172-2.235q1.372-.81 3.094-.812 1.718.002 3.078.812a5.73 5.73 0 0 1 2.14 2.219q.781 1.423.782 3.25zm-5.969-5.36c-1.187 0-2.187.383-3 1.14q-1.207 1.144-1.375 2.985h8.766q-.158-1.84-1.375-2.984-1.207-1.139-3.016-1.14m10.996 1.077a4.14 4.14 0 0 1 1.75-1.875q1.169-.64 2.89-.64v1.625l-.406-.016q-1.956 0-3.063 1.203-1.094 1.19-1.093 3.36v6.296h-1.672V138.62h1.594zm11.051 10.078c-1 0-1.961-.144-2.875-.437q-1.377-.436-2.156-1.094l.75-1.328q.78.628 1.953 1.016 1.17.375 2.453.375 1.686.001 2.5-.532.81-.528.812-1.484 0-.685-.453-1.078-.44-.389-1.125-.578a17 17 0 0 0-1.812-.39q-1.501-.281-2.422-.579a3.64 3.64 0 0 1-1.563-1c-.43-.469-.64-1.117-.64-1.953q0-1.547 1.281-2.531c.863-.664 2.066-1 3.61-1q1.2 0 2.39.328 1.2.314 1.984.828l-.734 1.344q-1.533-1.062-3.64-1.063-1.613 0-2.422.563-.798.563-.797 1.484c0 .469.148.844.453 1.125q.45.423 1.14.625.685.205 1.875.422 1.484.281 2.375.562a3.4 3.4 0 0 1 1.532.97q.639.672.64 1.874 0 1.629-1.36 2.578-1.347.954-3.75.953m0 0"/></svg>