<?xml version="1.0" encoding="UTF-8" standalone="no"?>
<svg
   width="480"
   zoomAndPan="magnify"
   viewBox="0 0 360 180"
   height="240"
   preserveAspectRatio="xMidYMid"
   version="1.0"
   id="svg82"
   sodipodi:docname="AiBL Logo Light 400x200.svg"
   xmlns:inkscape="http://www.inkscape.org/namespaces/inkscape"
   xmlns:sodipodi="http://sodipodi.sourceforge.net/DTD/sodipodi-0.dtd"
   xmlns="http://www.w3.org/2000/svg"
   xmlns:svg="http://www.w3.org/2000/svg">
  <sodipodi:namedview
     id="namedview82"
     pagecolor="#ffffff"
     bordercolor="#000000"
     borderopacity="0.25"
     inkscape:showpageshadow="2"
     inkscape:pageopacity="0.0"
     inkscape:pagecheckerboard="0"
     inkscape:deskcolor="#d1d1d1" />
  <defs
     id="defs1">
    <g
       id="g1" />
  </defs>
  <rect
     x="0"
     width="360"
     fill="#ffffff"
     y="0"
     height="180"
     fill-opacity="1"
     id="rect1" />
  <rect
     x="0"
     width="360"
     fill="#ffffff"
     y="0"
     height="180"
     fill-opacity="1"
     id="rect2" />
  <g
     fill="#2cbaa3"
     fill-opacity="1"
     id="g4"
     transform="translate(30,15)">
    <g
       transform="translate(5.238283,112.00942)"
       id="g3">
      <g
         id="g2">
        <path
           d="M 63.875,-17.609375 H 25.71875 L 18.4375,0 h -19.5 l 36.640625,-82.1875 h 18.78125 L 91.109375,0 h -19.96875 z m -6,-14.4375 -13.03125,-31.46875 -13.03125,31.46875 z m 0,0"
           id="path2" />
      </g>
    </g>
  </g>
  <g
     fill="#2cbaa3"
     fill-opacity="1"
     id="g7"
     transform="translate(30,15)">
    <g
       transform="translate(95.165528,112.00942)"
       id="g6">
      <g
         id="g5">
        <path
           d="m 8.453125,-63.171875 h 18.3125 V 0 h -18.3125 z m 9.15625,-8.796875 c -3.367187,0 -6.105469,-0.976562 -8.21875,-2.9375 -2.117187,-1.957031 -3.171875,-4.382812 -3.171875,-7.28125 0,-2.894531 1.054688,-5.320312 3.171875,-7.28125 2.113281,-1.957031 4.851563,-2.9375 8.21875,-2.9375 3.363281,0 6.101563,0.945312 8.21875,2.828125 2.113281,1.875 3.171875,4.226563 3.171875,7.046875 0,3.054688 -1.058594,5.578125 -3.171875,7.578125 -2.117187,1.992187 -4.855469,2.984375 -8.21875,2.984375 z m 0,0"
           id="path4" />
      </g>
    </g>
  </g>
  <g
     fill="#2d2a42"
     fill-opacity="1"
     id="g10"
     transform="translate(30,15)">
    <g
       transform="translate(130.51172,112.00942)"
       id="g9">
      <g
         id="g8">
        <path
           d="m 70.09375,-42.734375 c 4.695312,1.492187 8.375,3.976563 11.03125,7.453125 2.664062,3.480469 4,7.765625 4,12.859375 0,7.199219 -2.804688,12.734375 -8.40625,16.609375 C 71.125,-1.9375 62.96875,0 52.25,0 H 9.75 v -82.1875 h 40.140625 c 10.019531,0 17.710937,1.921875 23.078125,5.765625 5.363281,3.835937 8.046875,9.039063 8.046875,15.609375 0,3.992188 -0.964844,7.554688 -2.890625,10.6875 -1.917969,3.125 -4.59375,5.589844 -8.03125,7.390625 z m -41.453125,-25.125 v 19.375 h 18.90625 c 4.695313,0 8.257813,-0.820313 10.6875,-2.46875 2.425781,-1.644531 3.640625,-4.070313 3.640625,-7.28125 0,-3.207031 -1.214844,-5.613281 -3.640625,-7.21875 -2.429687,-1.601563 -5.992187,-2.40625 -10.6875,-2.40625 z m 22.203125,53.53125 c 5,0 8.769531,-0.816406 11.3125,-2.453125 2.550781,-1.644531 3.828125,-4.191406 3.828125,-7.640625 0,-6.8125 -5.046875,-10.21875 -15.140625,-10.21875 H 28.640625 v 20.3125 z m 0,0"
           id="path7" />
      </g>
    </g>
  </g>
  <g
     fill="#2d2a42"
     fill-opacity="1"
     id="g13"
     transform="translate(30,15)">
    <g
       transform="translate(220.32157,112.00942)"
       id="g12">
      <g
         id="g11">
        <path
           d="M 9.75,-82.1875 H 28.765625 V -15.5 H 69.96875 V 0 H 9.75 Z m 0,0"
           id="path10" />
      </g>
    </g>
  </g>
  <g
     fill="#2cbaa3"
     fill-opacity="1"
     id="g16"
     transform="translate(30,15)">
    <g
       transform="translate(7.554254,135.99538)"
       id="g15">
      <g
         id="g14">
        <path
           d="M 12.796875,-3.53125 H 5.15625 L 3.6875,0 H -0.21875 L 7.125,-16.46875 h 3.765625 L 18.25,0 h -4 z M 11.59375,-6.421875 8.984375,-12.71875 6.375,-6.421875 Z m 0,0"
           id="path13" />
      </g>
    </g>
  </g>
  <g
     fill="#2cbaa3"
     fill-opacity="1"
     id="g19"
     transform="translate(30,15)">
    <g
       transform="translate(25.561211,135.99538)"
       id="g18">
      <g
         id="g17">
        <path
           d="M 1.6875,-12.65625 H 5.359375 V 0 H 1.6875 Z m 1.828125,-1.765625 C 2.847656,-14.421875 2.300781,-14.613281 1.875,-15 1.457031,-15.394531 1.25,-15.882812 1.25,-16.46875 c 0,-0.570312 0.207031,-1.050781 0.625,-1.4375 C 2.300781,-18.300781 2.847656,-18.5 3.515625,-18.5 c 0.675781,0 1.222656,0.1875 1.640625,0.5625 0.425781,0.375 0.640625,0.84375 0.640625,1.40625 0,0.617188 -0.214844,1.121094 -0.640625,1.515625 -0.417969,0.398437 -0.964844,0.59375 -1.640625,0.59375 z m 0,0"
           id="path16" />
      </g>
    </g>
  </g>
  <g
     fill="#2cbaa3"
     fill-opacity="1"
     id="g22"
     transform="translate(30,15)">
    <g
       transform="translate(32.637047,135.99538)"
       id="g21">
      <g
         id="g20" />
    </g>
  </g>
  <g
     fill="#4b5563"
     fill-opacity="1"
     id="g25"
     transform="translate(30,15)">
    <g
       transform="translate(39.300346,135.99538)"
       id="g24">
      <g
         id="g23">
        <path
           d="m 4.421875,-14.953125 v 6.46875 H 12.9375 v 1.5 H 4.421875 V 0 H 2.6875 v -16.46875 h 11.28125 v 1.515625 z m 0,0"
           id="path22" />
      </g>
    </g>
  </g>
  <g
     fill="#4b5563"
     fill-opacity="1"
     id="g28"
     transform="translate(30,15)">
    <g
       transform="translate(53.75754,135.99538)"
       id="g27">
      <g
         id="g26">
        <path
           d="m 7.390625,0.125 c -1.199219,0 -2.277344,-0.269531 -3.234375,-0.8125 -0.949219,-0.539062 -1.699219,-1.289062 -2.25,-2.25 -0.554688,-0.957031 -0.828125,-2.039062 -0.828125,-3.25 0,-1.207031 0.273437,-2.285156 0.828125,-3.234375 0.550781,-0.957031 1.300781,-1.703125 2.25,-2.234375 0.957031,-0.539062 2.035156,-0.8125 3.234375,-0.8125 1.1875,0 2.257813,0.273438 3.21875,0.8125 0.957031,0.53125 1.703125,1.277344 2.234375,2.234375 0.539062,0.949219 0.8125,2.027344 0.8125,3.234375 0,1.210938 -0.273438,2.292969 -0.8125,3.25 -0.53125,0.960938 -1.277344,1.710938 -2.234375,2.25 -0.960937,0.542969 -2.03125,0.8125 -3.21875,0.8125 z m 0,-1.484375 c 0.875,0 1.660156,-0.195313 2.359375,-0.59375 0.695312,-0.40625 1.238281,-0.976563 1.625,-1.71875 0.394531,-0.738281 0.59375,-1.578125 0.59375,-2.515625 0,-0.9375 -0.199219,-1.773438 -0.59375,-2.515625 C 10.988281,-9.441406 10.445312,-10.007812 9.75,-10.40625 9.050781,-10.800781 8.265625,-11 7.390625,-11 c -0.886719,0 -1.679687,0.199219 -2.375,0.59375 C 4.316406,-10.007812 3.769531,-9.441406 3.375,-8.703125 2.976562,-7.960938 2.78125,-7.125 2.78125,-6.1875 c 0,0.9375 0.195312,1.777344 0.59375,2.515625 0.394531,0.742187 0.941406,1.3125 1.640625,1.71875 0.695313,0.398437 1.488281,0.59375 2.375,0.59375 z m 0,0"
           id="path25" />
      </g>
    </g>
  </g>
  <g
     fill="#4b5563"
     fill-opacity="1"
     id="g31"
     transform="translate(30,15)">
    <g
       transform="translate(68.496911,135.99538)"
       id="g30">
      <g
         id="g29">
        <path
           d="m 3.921875,-9.953125 c 0.394531,-0.820313 0.976563,-1.445313 1.75,-1.875 0.78125,-0.425781 1.742187,-0.640625 2.890625,-0.640625 v 1.625 l -0.40625,-0.01563 c -1.304688,0 -2.324219,0.402344 -3.0625,1.203125 C 4.363281,-8.863281 4,-7.742188 4,-6.296875 V 0 H 2.328125 v -12.375 h 1.59375 z m 0,0"
           id="path28" />
      </g>
    </g>
  </g>
  <g
     fill="#4b5563"
     fill-opacity="1"
     id="g34"
     transform="translate(30,15)">
    <g
       transform="translate(77.923524,135.99538)"
       id="g33">
      <g
         id="g32" />
    </g>
  </g>
  <g
     fill="#4b5563"
     fill-opacity="1"
     id="g37"
     transform="translate(30,15)">
    <g
       transform="translate(84.082562,135.99538)"
       id="g36">
      <g
         id="g35">
        <path
           d="m 13.046875,-8.484375 c 1.082031,0.230469 1.914063,0.695313 2.5,1.390625 0.59375,0.699219 0.890625,1.601562 0.890625,2.703125 0,1.40625 -0.523438,2.492187 -1.5625,3.25 C 13.832031,-0.378906 12.289062,0 10.25,0 H 2.6875 v -16.46875 h 7.09375 c 1.832031,0 3.253906,0.371094 4.265625,1.109375 1.007813,0.742187 1.515625,1.78125 1.515625,3.125 0,0.917969 -0.226562,1.695313 -0.671875,2.328125 -0.4375,0.636719 -1.054687,1.109375 -1.84375,1.421875 z m -8.625,-6.546875 v 5.984375 h 5.25 c 1.320313,0 2.34375,-0.253906 3.0625,-0.765625 0.726563,-0.507812 1.09375,-1.253906 1.09375,-2.234375 0,-0.96875 -0.367187,-1.707031 -1.09375,-2.21875 -0.71875,-0.507813 -1.742187,-0.765625 -3.0625,-0.765625 z m 5.8125,13.59375 c 1.46875,0 2.578125,-0.25 3.328125,-0.75 0.757812,-0.5 1.140625,-1.28125 1.140625,-2.34375 0,-2.0625 -1.492187,-3.09375 -4.46875,-3.09375 h -5.8125 v 6.1875 z m 0,0"
           id="path34" />
      </g>
    </g>
  </g>
  <g
     fill="#4b5563"
     fill-opacity="1"
     id="g40"
     transform="translate(30,15)">
    <g
       transform="translate(101.80742,135.99538)"
       id="g39">
      <g
         id="g38">
        <path
           d="M 13.46875,-12.375 V 0 H 11.875 v -2.25 c -0.4375,0.75 -1.042969,1.335938 -1.8125,1.75 -0.773438,0.4179688 -1.648438,0.625 -2.625,0.625 -1.617188,0 -2.890625,-0.453125 -3.828125,-1.359375 -0.9375,-0.90625 -1.40625,-2.226563 -1.40625,-3.96875 V -12.375 H 3.875 v 7.015625 c 0,1.304687 0.320312,2.292969 0.96875,2.96875 0.644531,0.667969 1.5625,1 2.75,1 1.300781,0 2.328125,-0.394531 3.078125,-1.1875 C 11.429688,-3.367188 11.8125,-4.46875 11.8125,-5.875 v -6.5 z m 0,0"
           id="path37" />
      </g>
    </g>
  </g>
  <g
     fill="#4b5563"
     fill-opacity="1"
     id="g43"
     transform="translate(30,15)">
    <g
       transform="translate(117.62816,135.99538)"
       id="g42">
      <g
         id="g41">
        <path
           d="m 5.640625,0.125 c -1,0 -1.960937,-0.1445312 -2.875,-0.4375 -0.917969,-0.289062 -1.636719,-0.65625 -2.15625,-1.09375 l 0.75,-1.328125 c 0.519531,0.417969 1.171875,0.757813 1.953125,1.015625 0.78125,0.25 1.597656,0.375 2.453125,0.375 1.125,0 1.957031,-0.175781 2.5,-0.53125 0.539063,-0.351562 0.8125,-0.847656 0.8125,-1.484375 C 9.078125,-3.816406 8.925781,-4.175781 8.625,-4.4375 8.332031,-4.695312 7.957031,-4.890625 7.5,-5.015625 7.039062,-5.148438 6.4375,-5.28125 5.6875,-5.40625 c -1,-0.1875 -1.808594,-0.378906 -2.421875,-0.578125 -0.605469,-0.195313 -1.125,-0.53125 -1.5625,-1 C 1.273438,-7.453125 1.0625,-8.101562 1.0625,-8.9375 c 0,-1.03125 0.425781,-1.875 1.28125,-2.53125 0.863281,-0.664062 2.066406,-1 3.609375,-1 0.800781,0 1.597656,0.109375 2.390625,0.328125 0.800781,0.210937 1.460938,0.484375 1.984375,0.828125 L 9.59375,-9.96875 c -1.023438,-0.707031 -2.234375,-1.0625 -3.640625,-1.0625 -1.074219,0 -1.882813,0.1875 -2.421875,0.5625 -0.53125,0.375 -0.796875,0.871094 -0.796875,1.484375 0,0.46875 0.148437,0.84375 0.453125,1.125 0.300781,0.28125 0.679688,0.492187 1.140625,0.625 0.457031,0.136719 1.082031,0.277344 1.875,0.421875 0.988281,0.1875 1.78125,0.375 2.375,0.5625 0.601563,0.1875 1.113281,0.511719 1.53125,0.96875 0.425781,0.449219 0.640625,1.074219 0.640625,1.875 0,1.085938 -0.453125,1.945312 -1.359375,2.578125 C 8.492188,-0.191406 7.242188,0.125 5.640625,0.125 Z m 0,0"
           id="path40" />
      </g>
    </g>
  </g>
  <g
     fill="#4b5563"
     fill-opacity="1"
     id="g46"
     transform="translate(30,15)">
    <g
       transform="translate(129.12346,135.99538)"
       id="g45">
      <g
         id="g44">
        <path
           d="M 2.328125,-12.375 H 4 V 0 H 2.328125 Z m 0.84375,-2.703125 c -0.34375,0 -0.636719,-0.113281 -0.875,-0.34375 -0.230469,-0.238281 -0.34375,-0.519531 -0.34375,-0.84375 0,-0.320313 0.113281,-0.597656 0.34375,-0.828125 0.238281,-0.238281 0.53125,-0.359375 0.875,-0.359375 0.351563,0 0.644531,0.117187 0.875,0.34375 0.238281,0.230469 0.359375,0.5 0.359375,0.8125 0,0.34375 -0.121094,0.636719 -0.359375,0.875 -0.230469,0.230469 -0.523437,0.34375 -0.875,0.34375 z m 0,0"
           id="path43" />
      </g>
    </g>
  </g>
  <g
     fill="#4b5563"
     fill-opacity="1"
     id="g49"
     transform="translate(30,15)">
    <g
       transform="translate(135.44705,135.99538)"
       id="g48">
      <g
         id="g47">
        <path
           d="m 8.625,-12.46875 c 1.550781,0 2.785156,0.453125 3.703125,1.359375 0.914063,0.898437 1.375,2.210937 1.375,3.9375 V 0 h -1.65625 v -7 c 0,-1.289062 -0.324219,-2.269531 -0.96875,-2.9375 -0.648437,-0.675781 -1.5625,-1.015625 -2.75,-1.015625 -1.335937,0 -2.390625,0.398437 -3.171875,1.1875 C 4.382812,-8.972656 4,-7.878906 4,-6.484375 V 0 H 2.328125 v -12.375 h 1.59375 v 2.28125 c 0.457031,-0.75 1.085937,-1.332031 1.890625,-1.75 0.8125,-0.414062 1.75,-0.625 2.8125,-0.625 z m 0,0"
           id="path46" />
      </g>
    </g>
  </g>
  <g
     fill="#4b5563"
     fill-opacity="1"
     id="g52"
     transform="translate(30,15)">
    <g
       transform="translate(151.40884,135.99538)"
       id="g51">
      <g
         id="g50">
        <path
           d="M 13.09375,-5.671875 H 2.75 c 0.09375,1.292969 0.585938,2.335937 1.484375,3.125 0.894531,0.792969 2.023437,1.1875 3.390625,1.1875 0.757812,0 1.460938,-0.132813 2.109375,-0.40625 0.644531,-0.28125 1.203125,-0.6875 1.671875,-1.21875 l 0.9375,1.078125 C 11.789062,-1.25 11.101562,-0.742188 10.28125,-0.390625 9.457031,-0.046875 8.554688,0.125 7.578125,0.125 c -1.273437,0 -2.398437,-0.269531 -3.375,-0.8125 -0.980469,-0.539062 -1.746094,-1.289062 -2.296875,-2.25 -0.554688,-0.957031 -0.828125,-2.039062 -0.828125,-3.25 0,-1.207031 0.257813,-2.285156 0.78125,-3.234375 0.53125,-0.957031 1.253906,-1.703125 2.171875,-2.234375 0.914062,-0.539062 1.945312,-0.8125 3.09375,-0.8125 1.144531,0 2.171875,0.273438 3.078125,0.8125 0.90625,0.53125 1.617187,1.273438 2.140625,2.21875 0.519531,0.949219 0.78125,2.03125 0.78125,3.25 z M 7.125,-11.03125 c -1.1875,0 -2.1875,0.382812 -3,1.140625 -0.804688,0.761719 -1.261719,1.757813 -1.375,2.984375 h 8.765625 c -0.105469,-1.226562 -0.5625,-2.222656 -1.375,-2.984375 C 9.335938,-10.648438 8.332031,-11.03125 7.125,-11.03125 Z m 0,0"
           id="path49" />
      </g>
    </g>
  </g>
  <g
     fill="#4b5563"
     fill-opacity="1"
     id="g55"
     transform="translate(30,15)">
    <g
       transform="translate(165.60753,135.99538)"
       id="g54">
      <g
         id="g53">
        <path
           d="m 5.640625,0.125 c -1,0 -1.960937,-0.1445312 -2.875,-0.4375 -0.917969,-0.289062 -1.636719,-0.65625 -2.15625,-1.09375 l 0.75,-1.328125 c 0.519531,0.417969 1.171875,0.757813 1.953125,1.015625 0.78125,0.25 1.597656,0.375 2.453125,0.375 1.125,0 1.957031,-0.175781 2.5,-0.53125 0.539063,-0.351562 0.8125,-0.847656 0.8125,-1.484375 C 9.078125,-3.816406 8.925781,-4.175781 8.625,-4.4375 8.332031,-4.695312 7.957031,-4.890625 7.5,-5.015625 7.039062,-5.148438 6.4375,-5.28125 5.6875,-5.40625 c -1,-0.1875 -1.808594,-0.378906 -2.421875,-0.578125 -0.605469,-0.195313 -1.125,-0.53125 -1.5625,-1 C 1.273438,-7.453125 1.0625,-8.101562 1.0625,-8.9375 c 0,-1.03125 0.425781,-1.875 1.28125,-2.53125 0.863281,-0.664062 2.066406,-1 3.609375,-1 0.800781,0 1.597656,0.109375 2.390625,0.328125 0.800781,0.210937 1.460938,0.484375 1.984375,0.828125 L 9.59375,-9.96875 c -1.023438,-0.707031 -2.234375,-1.0625 -3.640625,-1.0625 -1.074219,0 -1.882813,0.1875 -2.421875,0.5625 -0.53125,0.375 -0.796875,0.871094 -0.796875,1.484375 0,0.46875 0.148437,0.84375 0.453125,1.125 0.300781,0.28125 0.679688,0.492187 1.140625,0.625 0.457031,0.136719 1.082031,0.277344 1.875,0.421875 0.988281,0.1875 1.78125,0.375 2.375,0.5625 0.601563,0.1875 1.113281,0.511719 1.53125,0.96875 0.425781,0.449219 0.640625,1.074219 0.640625,1.875 0,1.085938 -0.453125,1.945312 -1.359375,2.578125 C 8.492188,-0.191406 7.242188,0.125 5.640625,0.125 Z m 0,0"
           id="path52" />
      </g>
    </g>
  </g>
  <g
     fill="#4b5563"
     fill-opacity="1"
     id="g58"
     transform="translate(30,15)">
    <g
       transform="translate(177.10284,135.99538)"
       id="g57">
      <g
         id="g56">
        <path
           d="m 5.640625,0.125 c -1,0 -1.960937,-0.1445312 -2.875,-0.4375 -0.917969,-0.289062 -1.636719,-0.65625 -2.15625,-1.09375 l 0.75,-1.328125 c 0.519531,0.417969 1.171875,0.757813 1.953125,1.015625 0.78125,0.25 1.597656,0.375 2.453125,0.375 1.125,0 1.957031,-0.175781 2.5,-0.53125 0.539063,-0.351562 0.8125,-0.847656 0.8125,-1.484375 C 9.078125,-3.816406 8.925781,-4.175781 8.625,-4.4375 8.332031,-4.695312 7.957031,-4.890625 7.5,-5.015625 7.039062,-5.148438 6.4375,-5.28125 5.6875,-5.40625 c -1,-0.1875 -1.808594,-0.378906 -2.421875,-0.578125 -0.605469,-0.195313 -1.125,-0.53125 -1.5625,-1 C 1.273438,-7.453125 1.0625,-8.101562 1.0625,-8.9375 c 0,-1.03125 0.425781,-1.875 1.28125,-2.53125 0.863281,-0.664062 2.066406,-1 3.609375,-1 0.800781,0 1.597656,0.109375 2.390625,0.328125 0.800781,0.210937 1.460938,0.484375 1.984375,0.828125 L 9.59375,-9.96875 c -1.023438,-0.707031 -2.234375,-1.0625 -3.640625,-1.0625 -1.074219,0 -1.882813,0.1875 -2.421875,0.5625 -0.53125,0.375 -0.796875,0.871094 -0.796875,1.484375 0,0.46875 0.148437,0.84375 0.453125,1.125 0.300781,0.28125 0.679688,0.492187 1.140625,0.625 0.457031,0.136719 1.082031,0.277344 1.875,0.421875 0.988281,0.1875 1.78125,0.375 2.375,0.5625 0.601563,0.1875 1.113281,0.511719 1.53125,0.96875 0.425781,0.449219 0.640625,1.074219 0.640625,1.875 0,1.085938 -0.453125,1.945312 -1.359375,2.578125 C 8.492188,-0.191406 7.242188,0.125 5.640625,0.125 Z m 0,0"
           id="path55" />
      </g>
    </g>
  </g>
  <g
     fill="#4b5563"
     fill-opacity="1"
     id="g61"
     transform="translate(30,15)">
    <g
       transform="translate(188.59814,135.99538)"
       id="g60">
      <g
         id="g59" />
    </g>
  </g>
  <g
     fill="#4b5563"
     fill-opacity="1"
     id="g64"
     transform="translate(30,15)">
    <g
       transform="translate(194.75718,135.99538)"
       id="g63">
      <g
         id="g62">
        <path
           d="M 2.6875,-16.46875 H 4.421875 V -1.5 h 9.21875 V 0 H 2.6875 Z m 0,0"
           id="path61" />
      </g>
    </g>
  </g>
  <g
     fill="#4b5563"
     fill-opacity="1"
     id="g67"
     transform="translate(30,15)">
    <g
       transform="translate(208.41516,135.99538)"
       id="g66">
      <g
         id="g65">
        <path
           d="M 13.09375,-5.671875 H 2.75 c 0.09375,1.292969 0.585938,2.335937 1.484375,3.125 0.894531,0.792969 2.023437,1.1875 3.390625,1.1875 0.757812,0 1.460938,-0.132813 2.109375,-0.40625 0.644531,-0.28125 1.203125,-0.6875 1.671875,-1.21875 l 0.9375,1.078125 C 11.789062,-1.25 11.101562,-0.742188 10.28125,-0.390625 9.457031,-0.046875 8.554688,0.125 7.578125,0.125 c -1.273437,0 -2.398437,-0.269531 -3.375,-0.8125 -0.980469,-0.539062 -1.746094,-1.289062 -2.296875,-2.25 -0.554688,-0.957031 -0.828125,-2.039062 -0.828125,-3.25 0,-1.207031 0.257813,-2.285156 0.78125,-3.234375 0.53125,-0.957031 1.253906,-1.703125 2.171875,-2.234375 0.914062,-0.539062 1.945312,-0.8125 3.09375,-0.8125 1.144531,0 2.171875,0.273438 3.078125,0.8125 0.90625,0.53125 1.617187,1.273438 2.140625,2.21875 0.519531,0.949219 0.78125,2.03125 0.78125,3.25 z M 7.125,-11.03125 c -1.1875,0 -2.1875,0.382812 -3,1.140625 -0.804688,0.761719 -1.261719,1.757813 -1.375,2.984375 h 8.765625 c -0.105469,-1.226562 -0.5625,-2.222656 -1.375,-2.984375 C 9.335938,-10.648438 8.332031,-11.03125 7.125,-11.03125 Z m 0,0"
           id="path64" />
      </g>
    </g>
  </g>
  <g
     fill="#4b5563"
     fill-opacity="1"
     id="g70"
     transform="translate(30,15)">
    <g
       transform="translate(222.26117,135.99538)"
       id="g69">
      <g
         id="g68">
        <path
           d="m 6.65625,-12.46875 c 1.613281,0 2.847656,0.40625 3.703125,1.21875 0.863281,0.804688 1.296875,1.996094 1.296875,3.578125 V 0 H 10.0625 v -1.921875 c -0.375,0.636719 -0.929688,1.136719 -1.65625,1.5 C 7.675781,-0.0546875 6.8125,0.125 5.8125,0.125 c -1.386719,0 -2.484375,-0.328125 -3.296875,-0.984375 -0.8125,-0.664063 -1.21875,-1.539063 -1.21875,-2.625 0,-1.050781 0.378906,-1.894531 1.140625,-2.53125 0.757812,-0.644531 1.96875,-0.96875 3.625,-0.96875 H 10 v -0.75 C 10,-8.796875 9.695312,-9.601562 9.09375,-10.15625 8.5,-10.71875 7.628906,-11 6.484375,-11 c -0.78125,0 -1.53125,0.132812 -2.25,0.390625 -0.71875,0.25 -1.339844,0.605469 -1.859375,1.0625 l -0.75,-1.25 c 0.625,-0.53125 1.375,-0.941406 2.25,-1.234375 0.882812,-0.289062 1.8125,-0.4375 2.78125,-0.4375 z M 6.0625,-1.203125 c 0.945312,0 1.753906,-0.210937 2.421875,-0.640625 C 9.160156,-2.28125 9.664062,-2.90625 10,-3.71875 V -5.734375 H 6.109375 C 3.992188,-5.734375 2.9375,-5 2.9375,-3.53125 c 0,0.71875 0.269531,1.289062 0.8125,1.703125 0.550781,0.417969 1.320312,0.625 2.3125,0.625 z m 0,0"
           id="path67" />
      </g>
    </g>
  </g>
  <g
     fill="#4b5563"
     fill-opacity="1"
     id="g73"
     transform="translate(30,15)">
    <g
       transform="translate(236.17778,135.99538)"
       id="g72">
      <g
         id="g71">
        <path
           d="M 13.609375,-17.453125 V 0 h -1.59375 v -2.453125 c -0.5,0.835937 -1.164063,1.476563 -1.984375,1.921875 C 9.207031,-0.09375 8.28125,0.125 7.25,0.125 6.082031,0.125 5.03125,-0.140625 4.09375,-0.671875 3.15625,-1.210938 2.414062,-1.957031 1.875,-2.90625 1.34375,-3.863281 1.078125,-4.957031 1.078125,-6.1875 c 0,-1.21875 0.265625,-2.304688 0.796875,-3.265625 0.539062,-0.957031 1.28125,-1.695313 2.21875,-2.21875 0.9375,-0.53125 1.988281,-0.796875 3.15625,-0.796875 1,0 1.898438,0.210938 2.703125,0.625 0.8125,0.417969 1.476563,1.027344 2,1.828125 v -7.4375 z m -6.21875,16.09375 c 0.851563,0 1.628906,-0.195313 2.328125,-0.59375 0.695312,-0.40625 1.242188,-0.976563 1.640625,-1.71875 0.40625,-0.738281 0.609375,-1.578125 0.609375,-2.515625 0,-0.9375 -0.203125,-1.773438 -0.609375,-2.515625 C 10.960938,-9.441406 10.414062,-10.007812 9.71875,-10.40625 9.019531,-10.800781 8.242188,-11 7.390625,-11 c -0.886719,0 -1.679687,0.199219 -2.375,0.59375 C 4.316406,-10.007812 3.769531,-9.441406 3.375,-8.703125 2.976562,-7.960938 2.78125,-7.125 2.78125,-6.1875 c 0,0.9375 0.195312,1.777344 0.59375,2.515625 0.394531,0.742187 0.941406,1.3125 1.640625,1.71875 0.695313,0.398437 1.488281,0.59375 2.375,0.59375 z m 0,0"
           id="path70" />
      </g>
    </g>
  </g>
  <g
     fill="#4b5563"
     fill-opacity="1"
     id="g76"
     transform="translate(30,15)">
    <g
       transform="translate(252.11604,135.99538)"
       id="g75">
      <g
         id="g74">
        <path
           d="M 13.09375,-5.671875 H 2.75 c 0.09375,1.292969 0.585938,2.335937 1.484375,3.125 0.894531,0.792969 2.023437,1.1875 3.390625,1.1875 0.757812,0 1.460938,-0.132813 2.109375,-0.40625 0.644531,-0.28125 1.203125,-0.6875 1.671875,-1.21875 l 0.9375,1.078125 C 11.789062,-1.25 11.101562,-0.742188 10.28125,-0.390625 9.457031,-0.046875 8.554688,0.125 7.578125,0.125 c -1.273437,0 -2.398437,-0.269531 -3.375,-0.8125 -0.980469,-0.539062 -1.746094,-1.289062 -2.296875,-2.25 -0.554688,-0.957031 -0.828125,-2.039062 -0.828125,-3.25 0,-1.207031 0.257813,-2.285156 0.78125,-3.234375 0.53125,-0.957031 1.253906,-1.703125 2.171875,-2.234375 0.914062,-0.539062 1.945312,-0.8125 3.09375,-0.8125 1.144531,0 2.171875,0.273438 3.078125,0.8125 0.90625,0.53125 1.617187,1.273438 2.140625,2.21875 0.519531,0.949219 0.78125,2.03125 0.78125,3.25 z M 7.125,-11.03125 c -1.1875,0 -2.1875,0.382812 -3,1.140625 -0.804688,0.761719 -1.261719,1.757813 -1.375,2.984375 h 8.765625 c -0.105469,-1.226562 -0.5625,-2.222656 -1.375,-2.984375 C 9.335938,-10.648438 8.332031,-11.03125 7.125,-11.03125 Z m 0,0"
           id="path73" />
      </g>
    </g>
  </g>
  <g
     fill="#4b5563"
     fill-opacity="1"
     id="g79"
     transform="translate(30,15)">
    <g
       transform="translate(266.31474,135.99538)"
       id="g78">
      <g
         id="g77">
        <path
           d="m 3.921875,-9.953125 c 0.394531,-0.820313 0.976563,-1.445313 1.75,-1.875 0.78125,-0.425781 1.742187,-0.640625 2.890625,-0.640625 v 1.625 l -0.40625,-0.01563 c -1.304688,0 -2.324219,0.402344 -3.0625,1.203125 C 4.363281,-8.863281 4,-7.742188 4,-6.296875 V 0 H 2.328125 v -12.375 h 1.59375 z m 0,0"
           id="path76" />
      </g>
    </g>
  </g>
  <g
     fill="#4b5563"
     fill-opacity="1"
     id="g82"
     transform="translate(30,15)">
    <g
       transform="translate(275.64731,135.99538)"
       id="g81">
      <g
         id="g80">
        <path
           d="m 5.640625,0.125 c -1,0 -1.960937,-0.1445312 -2.875,-0.4375 -0.917969,-0.289062 -1.636719,-0.65625 -2.15625,-1.09375 l 0.75,-1.328125 c 0.519531,0.417969 1.171875,0.757813 1.953125,1.015625 0.78125,0.25 1.597656,0.375 2.453125,0.375 1.125,0 1.957031,-0.175781 2.5,-0.53125 0.539063,-0.351562 0.8125,-0.847656 0.8125,-1.484375 C 9.078125,-3.816406 8.925781,-4.175781 8.625,-4.4375 8.332031,-4.695312 7.957031,-4.890625 7.5,-5.015625 7.039062,-5.148438 6.4375,-5.28125 5.6875,-5.40625 c -1,-0.1875 -1.808594,-0.378906 -2.421875,-0.578125 -0.605469,-0.195313 -1.125,-0.53125 -1.5625,-1 C 1.273438,-7.453125 1.0625,-8.101562 1.0625,-8.9375 c 0,-1.03125 0.425781,-1.875 1.28125,-2.53125 0.863281,-0.664062 2.066406,-1 3.609375,-1 0.800781,0 1.597656,0.109375 2.390625,0.328125 0.800781,0.210937 1.460938,0.484375 1.984375,0.828125 L 9.59375,-9.96875 c -1.023438,-0.707031 -2.234375,-1.0625 -3.640625,-1.0625 -1.074219,0 -1.882813,0.1875 -2.421875,0.5625 -0.53125,0.375 -0.796875,0.871094 -0.796875,1.484375 0,0.46875 0.148437,0.84375 0.453125,1.125 0.300781,0.28125 0.679688,0.492187 1.140625,0.625 0.457031,0.136719 1.082031,0.277344 1.875,0.421875 0.988281,0.1875 1.78125,0.375 2.375,0.5625 0.601563,0.1875 1.113281,0.511719 1.53125,0.96875 0.425781,0.449219 0.640625,1.074219 0.640625,1.875 0,1.085938 -0.453125,1.945312 -1.359375,2.578125 C 8.492188,-0.191406 7.242188,0.125 5.640625,0.125 Z m 0,0"
           id="path79" />
      </g>
    </g>
  </g>
</svg>
